<svg xmlns="http://www.w3.org/2000/svg" viewBox="0 0 32 32" width="32" height="32">
  <defs>
    <linearGradient id="bg" x1="0%" y1="0%" x2="100%" y2="100%">
      <stop offset="0%" stop-color="#1B6FC9"/>
      <stop offset="100%" stop-color="#42A5F5"/>
    </linearGradient>
  </defs>
  <rect width="32" height="32" rx="7" fill="url(#bg)"/>
  <g transform="translate(4.5, 4.5) scale(0.95)" fill="none" stroke="white" stroke-width="1.6" stroke-linecap="round" stroke-linejoin="round">
    <path d="M12 2a7 7 0 0 0-4.6 12.3c.5.4.8 1 .9 1.7h7.4c.1-.7.4-1.3.9-1.7A7 7 0 0 0 12 2z"/>
    <path d="M9 22h6"/>
    <path d="M10 18v4"/>
    <path d="M14 18v4"/>
    <path d="M12 2v4"/>
    <path d="M4.9 7.1l2.9 2.9"/>
    <path d="M19.1 7.1l-2.9 2.9"/>
  </g>
</svg>
